HIERARCHY
ROOT Pelvis
{
	OFFSET -0.217368 -24.078917 2.858379
	CHANNELS 6 Xposition Yposition Zposition Zrotation Yrotation Xrotation 
	JOINT Left_hip
	{
		OFFSET 5.858135 -8.228005 -1.766408
		CHANNELS 3 Zrotation Yrotation Xrotation
		JOINT Left_knee
		{
			OFFSET 4.345143 -38.646942 0.803700
			CHANNELS 3 Zrotation Yrotation Xrotation
			JOINT Left_ankle
			{
				OFFSET -1.479033 -42.687447 -3.742800
				CHANNELS 3 Zrotation Yrotation Xrotation
				JOINT Left_foot
				{
					OFFSET 4.105436 -6.028605 12.204244
					CHANNELS 3 Zrotation Yrotation Xrotation
					End Site
					{
						OFFSET 0.000000 0.000000 0.000000
					}
				}
			}
		}
	}
	JOINT Right_hip
	{
		OFFSET -6.030973 -9.051328 -1.354253
		CHANNELS 3 Zrotation Yrotation Xrotation
		JOINT Right_knee
		{
			OFFSET -4.325663 -38.368790 -0.484304
			CHANNELS 3 Zrotation Yrotation Xrotation
			JOINT Right_ankle
			{
				OFFSET 1.905555 -42.004566 -3.456167
				CHANNELS 3 Zrotation Yrotation Xrotation
				JOINT Right_foot
				{
					OFFSET -3.483987 -6.210554 13.032330
					CHANNELS 3 Zrotation Yrotation Xrotation
					End Site
					{
						OFFSET 0.000000 0.000000 0.000000
					}
				}
			}
		}
	}
	JOINT Spine1
	{
		OFFSET 0.443945 12.440353 -3.838522
		CHANNELS 3 Zrotation Yrotation Xrotation
		JOINT Spine2
		{
			OFFSET 0.448844 13.795640 2.682033
			CHANNELS 3 Zrotation Yrotation Xrotation
			JOINT Spine3
			{
				OFFSET -0.226460 5.603239 0.285504
				CHANNELS 3 Zrotation Yrotation Xrotation
				JOINT Neck
				{
					OFFSET -1.339018 21.163553 -3.346758
					CHANNELS 3 Zrotation Yrotation Xrotation
					JOINT Head
					{
						OFFSET 1.011321 8.893734 5.040987
						CHANNELS 3 Zrotation Yrotation Xrotation
						End Site
						{
							OFFSET 0.000000 0.000000 0.000000
						}
					}
				}
				JOINT Left_collar
				{
					OFFSET 7.170247 11.399971 -1.889817
					CHANNELS 3 Zrotation Yrotation Xrotation
					JOINT Left_shoulder
					{
						OFFSET 12.292140 4.520507 -1.904600
						CHANNELS 3 Zrotation Yrotation Xrotation
						JOINT Left_elbow
						{
							OFFSET 25.533188 -1.564902 -2.294648
							CHANNELS 3 Zrotation Yrotation Xrotation
							JOINT Left_wrist
							{
								OFFSET 26.570929 1.269810 -0.737473
								CHANNELS 3 Zrotation Yrotation Xrotation
								JOINT Left_palm
								{
									OFFSET 8.669054 -1.063602 -1.559429
									CHANNELS 3 Zrotation Yrotation Xrotation
									End Site
									{
										OFFSET 0.000000 0.000000 0.000000
									}
								}
							}
						}
					}
				}
				JOINT Right_collar
				{
					OFFSET -8.295364 11.247234 -2.370738
					CHANNELS 3 Zrotation Yrotation Xrotation
					JOINT Right_shoulder
					{
						OFFSET -11.322830 4.685326 -0.847207
						CHANNELS 3 Zrotation Yrotation Xrotation
						JOINT Right_elbow
						{
							OFFSET -26.012751 -1.436928 -3.126872
							CHANNELS 3 Zrotation Yrotation Xrotation
							JOINT Right_wrist
							{
								OFFSET -26.910841 0.679372 -0.602677
								CHANNELS 3 Zrotation Yrotation Xrotation
								JOINT Right_palm
								{
									OFFSET -8.875370 -0.865157 -1.010708
									CHANNELS 3 Zrotation Yrotation Xrotation
									End Site
									{
										OFFSET 0.000000 0.000000 0.000000
									}
								}
							}
						}
					}
				}
			}
		}
	}
}
MOTION
Frames: 5
Frame Time: 0.016667
-25.904564 18.166136 18.326622 30.551153 -9.221802 6.301605 13.515369 1.723259 -63.438481 -1.960651 -10.009801 146.809001 -8.396900 -13.771363 5.745417 0.000000 0.000000 0.000000 -16.857453 -1.640096 -41.258323 5.168930 -4.175906 147.161795 -2.565293 -7.711801 3.716861 0.000000 0.000000 0.000000 2.732327 -4.620241 63.465505 -6.917119 2.927422 -8.826356 -5.550942 8.616915 20.043156 11.598120 -1.642962 -37.744560 0.000000 0.000000 0.000000 -30.515322 -44.266498 28.493278 11.095990 -15.720615 -1.160070 11.450829 -17.679137 -1.084652 0.000000 0.000000 0.000000 0.000000 0.000000 0.000000 31.389324 27.237710 15.975737 1.123261 27.765278 -1.328827 -30.701674 4.795706 -0.477098 0.000000 0.000000 0.000000 0.000000 0.000000 0.000000 
-25.313820 18.405527 18.496321 30.401267 -9.337535 9.786744 10.425617 -0.135033 -57.530423 -0.680660 -15.005673 144.252059 -16.598792 -16.261074 21.901952 0.000000 0.000000 0.000000 -19.427081 -2.563491 -41.514451 4.745670 -1.720005 144.813021 0.030707 -2.942007 6.524623 0.000000 0.000000 0.000000 3.879059 -4.863917 58.728831 -4.233636 1.877640 -9.322844 -6.244707 10.421880 21.699444 13.455684 -2.284084 -37.891027 0.000000 0.000000 0.000000 -30.859732 -39.511011 24.888062 9.221973 -17.546044 -1.346521 10.492622 -21.937701 -1.183696 0.000000 0.000000 0.000000 0.000000 0.000000 0.000000 29.938473 25.318409 14.249489 -0.000106 27.616079 -1.507631 -29.180795 6.832621 -0.911295 0.000000 0.000000 0.000000 0.000000 0.000000 0.000000 
-24.543793 18.235933 18.635021 29.425222 -11.286659 12.735175 8.324658 -1.100908 -50.803812 -1.046801 -11.215097 140.302381 -18.366162 -15.057297 27.394726 0.000000 0.000000 0.000000 -18.674752 -2.395606 -42.894738 4.161846 1.048585 143.489668 1.757543 0.165807 7.922060 0.000000 0.000000 0.000000 5.214038 -5.220617 55.064959 -4.343494 1.912769 -9.732291 -5.730697 10.941261 22.202925 14.496945 -2.720277 -37.585243 0.000000 0.000000 0.000000 -33.229549 -36.349234 23.283418 7.078178 -17.922027 -1.283039 8.162785 -24.048919 -0.819463 0.000000 0.000000 0.000000 0.000000 0.000000 0.000000 29.082172 24.774435 13.689601 -0.996495 27.456758 -1.661870 -27.871916 9.108922 -1.354501 0.000000 0.000000 0.000000 0.000000 0.000000 0.000000 
-23.669241 18.204035 18.671719 26.363926 -12.867797 15.804628 6.374949 -1.780271 -45.621030 -3.163860 -2.079064 136.078688 -16.053194 -11.247940 28.518935 0.000000 0.000000 0.000000 -17.228888 -2.062053 -46.300686 3.862737 2.387932 143.130030 1.798969 0.610865 7.177247 0.000000 0.000000 0.000000 7.437444 -6.080362 52.600032 -5.731599 2.360180 -12.311001 -2.591762 14.363503 24.677390 15.929074 -3.658764 -35.659476 0.000000 0.000000 0.000000 -36.832662 -33.739368 22.401119 3.538347 -19.482817 -1.226832 7.034173 -27.540711 -0.677189 0.000000 0.000000 0.000000 0.000000 0.000000 0.000000 26.048788 21.420049 10.880623 -0.637803 27.206401 -1.586986 -27.338887 12.219300 -1.986789 0.000000 0.000000 0.000000 0.000000 0.000000 0.000000 
-22.659956 17.814924 18.568741 22.290367 -14.147637 17.663545 5.629240 -1.798386 -39.675845 -5.389659 5.132165 131.678800 -15.330252 -10.729184 27.765499 0.000000 0.000000 0.000000 -14.344444 -1.000055 -49.482687 2.803679 7.189660 143.083498 3.433685 2.850998 9.623238 0.000000 0.000000 0.000000 9.815438 -7.302519 52.666408 -6.362745 2.520379 -14.045972 -1.678020 16.846062 25.248224 17.385904 -3.877078 -37.148126 0.000000 0.000000 0.000000 -37.007785 -30.836275 20.026810 -1.204271 -22.121229 -1.017145 6.350430 -27.511784 -0.512044 0.000000 0.000000 0.000000 0.000000 0.000000 0.000000 24.039872 20.931834 10.280634 -1.996482 26.081946 -1.720546 -26.422330 12.771989 -2.019106 0.000000 0.000000 0.000000 0.000000 0.000000 0.000000 
